HIERARCHY
ROOT Hips
{
	OFFSET 0.000000 0.000000 0.000000
	CHANNELS 6 Xposition Yposition Zposition Zrotation Yrotation Xrotation 
	JOINT LHipJoint
	{
		OFFSET 0.000000 0.000000 0.000000
		CHANNELS 3 Zrotation Yrotation Xrotation
		JOINT LeftUpLeg
		{
			OFFSET 1.363060 -1.794630 0.839290
			CHANNELS 3 Zrotation Yrotation Xrotation
			JOINT LeftLeg
			{
				OFFSET 2.448110 -6.726130 0.000000
				CHANNELS 3 Zrotation Yrotation Xrotation
				JOINT LeftFoot
				{
					OFFSET 2.562200 -7.039590 0.000000
					CHANNELS 3 Zrotation Yrotation Xrotation
					JOINT LeftToeBase
					{
						OFFSET 0.157640 -0.433110 2.322550
						CHANNELS 3 Zrotation Yrotation Xrotation
						End Site
						{
							OFFSET 0.000000 0.000000 0.000000
						}
					}
				}
			}
		}
	}
	JOINT RHipJoint
	{
		OFFSET 0.000000 0.000000 0.000000
		CHANNELS 3 Zrotation Yrotation Xrotation
		JOINT RightUpLeg
		{
			OFFSET -1.305520 -1.794630 0.839290
			CHANNELS 3 Zrotation Yrotation Xrotation
			JOINT RightLeg
			{
				OFFSET -2.542530 -6.985550 0.000000
				CHANNELS 3 Zrotation Yrotation Xrotation
				JOINT RightFoot
				{
					OFFSET -2.568260 -7.056230 0.000000
					CHANNELS 3 Zrotation Yrotation Xrotation
					JOINT RightToeBase
					{
						OFFSET -0.164730 -0.452590 2.363150
						CHANNELS 3 Zrotation Yrotation Xrotation
						End Site
						{
							OFFSET 0.000000 0.000000 0.000000
						}
					}
				}
			}
		}
	}
	JOINT LowerBack
	{
		OFFSET 0.000000 0.000000 0.000000
		CHANNELS 3 Zrotation Yrotation Xrotation
		JOINT Spine
		{
			OFFSET 0.028270 2.035590 -0.193380
			CHANNELS 3 Zrotation Yrotation Xrotation
			JOINT Spine1
			{
				OFFSET 0.056720 2.048850 -0.042750
				CHANNELS 3 Zrotation Yrotation Xrotation
				JOINT Neck
				{
					OFFSET 0.000000 0.000000 0.000000
					CHANNELS 3 Zrotation Yrotation Xrotation
					JOINT Neck1
					{
						OFFSET -0.054170 1.746240 0.172020
						CHANNELS 3 Zrotation Yrotation Xrotation
						JOINT Head
						{
							OFFSET 0.104070 1.761360 -0.123970
							CHANNELS 3 Zrotation Yrotation Xrotation
							End Site
							{
								OFFSET 0.000000 0.000000 0.000000
							}
						}
					}
				}
				JOINT LeftShoulder
				{
					OFFSET 0.000000 0.000000 0.000000
					CHANNELS 3 Zrotation Yrotation Xrotation
					JOINT LeftArm
					{
						OFFSET 3.362410 1.200890 -0.311210
						CHANNELS 3 Zrotation Yrotation Xrotation
						JOINT LeftForeArm
						{
							OFFSET 4.983000 -0.000000 -0.000000
							CHANNELS 3 Zrotation Yrotation Xrotation
							JOINT LeftHand
							{
								OFFSET 3.483560 -0.000000 -0.000000
								CHANNELS 3 Zrotation Yrotation Xrotation
								JOINT LeftFingerBase
								{
									OFFSET 0.000000 0.000000 0.000000
									CHANNELS 3 Zrotation Yrotation Xrotation
									JOINT LeftHandIndex1
									{
										OFFSET 0.715260 -0.000000 -0.000000
										CHANNELS 3 Zrotation Yrotation Xrotation
										End Site
										{
											OFFSET 0.000000 0.000000 0.000000
										}
									}
								}
								JOINT LThumb
								{
									OFFSET 0.000000 0.000000 0.000000
									CHANNELS 3 Zrotation Yrotation Xrotation
									End Site
									{
										OFFSET 0.000000 0.000000 0.000000
									}
								}
							}
						}
					}
				}
				JOINT RightShoulder
				{
					OFFSET 0.000000 0.000000 0.000000
					CHANNELS 3 Zrotation Yrotation Xrotation
					JOINT RightArm
					{
						OFFSET -3.136600 1.374050 -0.404650
						CHANNELS 3 Zrotation Yrotation Xrotation
						JOINT RightForeArm
						{
							OFFSET -5.241900 -0.000000 -0.000000
							CHANNELS 3 Zrotation Yrotation Xrotation
							JOINT RightHand
							{
								OFFSET -3.444170 -0.000000 -0.000000
								CHANNELS 3 Zrotation Yrotation Xrotation
								JOINT RightFingerBase
								{
									OFFSET 0.000000 0.000000 0.000000
									CHANNELS 3 Zrotation Yrotation Xrotation
									JOINT RightHandIndex1
									{
										OFFSET -0.622530 -0.000000 -0.000000
										CHANNELS 3 Zrotation Yrotation Xrotation
										End Site
										{
											OFFSET 0.000000 0.000000 0.000000
										}
									}
								}
								JOINT RThumb
								{
									OFFSET 0.000000 0.000000 0.000000
									CHANNELS 3 Zrotation Yrotation Xrotation
									End Site
									{
										OFFSET 0.000000 0.000000 0.000000
									}
								}
							}
						}
					}
				}
			}
		}
	}
}
MOTION
Frames: 9
Frame Time: 0.008333
-19.952585 15.723504 -0.353897 130.769472 85.005467 153.196802 -6.989048 1.749183 10.201246 -9.180682 -22.660031 -65.665573 -1.586977 1.298292 30.245205 0.814158 4.145145 2.610694 1.564001 -0.000000 -30.387800 10.642556 -5.120830 1.195653 7.556319 -9.738282 10.973703 2.022398 0.100910 4.878546 0.672970 5.412245 7.430945 0.921799 -0.000000 -73.682700 -7.437445 3.562512 -12.258895 -3.203148 3.936106 -5.212451 -8.120561 3.918602 2.055988 12.158860 -3.484774 -9.118974 -4.028478 -0.314048 -0.450729 0.000000 0.000000 0.000000 -1.040667 27.619434 1.790553 -39.906428 8.501683 -39.479208 -3.213024 -18.918159 -0.018037 21.703972 3.356981 0.636303 -0.034569 0.043400 -0.000000 0.000000 0.000000 0.000000 0.000000 0.000000 0.000000 19.245940 6.365115 -0.762209 71.243505 24.113802 44.209790 0.522716 86.192099 0.009344 -1.340207 12.417083 -0.160942 0.088428 -0.686179 -0.000000 0.000000 0.000000 0.000000 0.000000 0.000000 0.000000 
-19.701983 15.765927 -0.338460 129.690606 84.539453 151.903344 -6.836248 1.846049 10.160401 -9.864194 -23.042576 -64.808724 -1.528848 1.368761 31.304726 0.991703 4.886011 1.877976 1.644200 0.000000 -30.229700 10.890827 -5.230571 1.170646 6.833701 -9.982744 10.242410 1.695986 -0.285655 7.249031 0.629515 5.709130 11.047097 1.348900 -0.000001 -78.172000 -7.948090 3.540629 -12.214156 -3.311686 3.982628 -5.225980 -8.130046 3.966105 1.948124 12.231849 -3.554486 -9.064307 -3.995746 -0.311685 -0.437116 0.000000 0.000000 0.000000 -1.126773 27.383831 1.777645 -39.642160 7.743577 -39.183669 -3.192415 -19.743367 -0.017818 21.709125 3.236205 0.613412 -0.034589 0.043037 -0.000000 0.000000 0.000000 0.000000 0.000000 0.000000 0.000000 19.169242 6.267161 -0.832716 71.596736 23.295860 43.894226 0.551187 85.817660 0.007376 -1.488680 12.317499 -0.176457 0.087721 -0.682285 -0.000000 0.000000 0.000000 0.000000 0.000000 0.000000 0.000000 
-19.456063 15.812079 -0.325269 128.580916 84.147395 150.503899 -6.714275 1.925762 10.056078 -10.657727 -23.194281 -63.720375 -1.509423 1.427792 32.221879 1.150278 5.508827 0.988385 1.661300 -0.000000 -30.006500 11.152387 -5.313140 1.119905 6.071211 -10.327073 9.331410 1.329481 -0.659566 9.973768 0.538792 6.262820 14.873854 1.964300 -0.000000 -81.548200 -8.388322 3.521943 -12.084055 -3.400482 4.023415 -5.222882 -8.122295 4.008040 1.840751 12.270228 -3.601105 -9.012589 -3.965849 -0.309335 -0.424872 0.000000 0.000000 0.000000 -1.231925 27.152165 1.768968 -39.584840 7.005698 -38.902045 -3.161780 -20.646702 -0.017309 21.751746 3.079384 0.584626 -0.034228 0.041937 -0.000000 0.000000 0.000000 0.000000 0.000000 0.000000 0.000000 19.073779 6.191512 -0.899754 71.871373 22.494441 43.528531 0.582861 85.309997 0.005087 -1.678852 12.255222 -0.197080 0.087285 -0.676794 -0.000000 0.000000 0.000000 0.000000 0.000000 0.000000 0.000000 
-19.215359 15.861295 -0.314340 127.407036 83.812277 148.977785 -6.624257 1.990286 9.898531 -11.539016 -23.139525 -62.420605 -1.525635 1.475392 32.983387 1.284919 6.000457 -0.006919 1.617800 0.000000 -29.658300 11.423919 -5.351794 1.049115 5.272816 -10.760248 8.246741 0.934935 -0.992936 13.007413 0.388930 7.017163 18.795465 2.776200 0.000000 -83.421699 -8.764688 3.498433 -11.882080 -3.470085 4.050943 -5.204594 -8.095043 4.036768 1.737168 12.271629 -3.629615 -8.960310 -3.938647 -0.307052 -0.412742 0.000000 0.000000 0.000000 -1.351621 26.910211 1.764900 -39.740603 6.322270 -38.604774 -3.123684 -21.625208 -0.016543 21.832672 2.903670 0.553238 -0.033655 0.040147 -0.000000 0.000000 0.000000 0.000000 0.000000 0.000000 0.000000 18.959612 6.126972 -0.961004 72.073695 21.730828 43.135226 0.616492 84.662439 0.002734 -1.880076 12.209455 -0.218921 0.086693 -0.669193 -0.000000 0.000000 0.000000 0.000000 0.000000 0.000000 0.000000 
-18.980071 15.912964 -0.305781 126.213206 83.520001 147.388671 -6.567676 2.041516 9.701542 -12.470249 -22.908483 -60.949389 -1.571808 1.510953 33.581830 1.391837 6.351623 -1.055940 1.522200 -0.000000 -29.153500 11.692409 -5.333468 0.967249 4.470242 -11.241891 7.006674 0.537795 -1.262417 16.283205 0.178956 7.834913 22.637413 3.719999 -0.000000 -83.530300 -9.079417 3.463198 -11.628997 -3.520561 4.058477 -5.173294 -8.047845 4.045385 1.642448 12.236455 -3.647402 -8.905983 -3.913638 -0.304849 -0.399973 0.000000 0.000000 0.000000 -1.483002 26.655488 1.763812 -40.103520 5.702297 -38.265855 -3.081314 -22.655508 -0.015563 21.950117 2.717851 0.520652 -0.033058 0.037752 -0.000000 0.000000 0.000000 0.000000 0.000000 0.000000 0.000000 18.827356 6.059685 -1.016122 72.212334 21.019188 42.731050 0.650917 83.874112 0.000579 -2.060345 12.157835 -0.238082 0.085478 -0.659037 -0.000000 0.000000 0.000000 0.000000 0.000000 0.000000 0.000000 
-18.750192 15.966590 -0.298379 124.851935 83.229483 145.592310 -6.525790 2.090012 9.482653 -13.455697 -22.572348 -59.304410 -1.647505 1.531930 33.980652 1.474201 6.591101 -2.101642 1.393700 0.000000 -28.489800 11.963923 -5.246093 0.864681 3.617895 -11.805455 5.636003 0.166460 -1.459119 19.756164 -0.074876 8.589113 26.171753 4.684101 -0.000000 -81.792600 -9.377861 3.404640 -11.327068 -3.561144 4.039649 -5.129615 -7.982111 4.027513 1.556238 12.175339 -3.665479 -8.844613 -3.891937 -0.302879 -0.385404 0.000000 0.000000 0.000000 -1.610845 26.356311 1.767986 -40.657447 5.180345 -37.848010 -3.037750 -23.728159 -0.014442 22.094575 2.545103 0.490867 -0.032551 0.034926 -0.000000 0.000000 0.000000 0.000000 0.000000 0.000000 0.000000 18.697708 5.973598 -1.060674 72.297607 20.374872 42.327023 0.684979 82.945274 -0.001151 -2.193487 12.077492 -0.251067 0.083441 -0.646191 -0.000000 0.000000 0.000000 0.000000 0.000000 0.000000 0.000000 
-18.525225 16.021888 -0.293260 123.637574 82.957745 143.933565 -6.511187 2.132632 9.256704 -14.411799 -22.142817 -57.570487 -1.739570 1.538531 34.207435 1.528970 6.703488 -3.111508 1.240600 0.000000 -27.695700 12.204458 -5.102192 0.755349 2.822544 -12.371228 4.146374 -0.148958 -1.592679 23.355364 -0.350773 8.988833 29.177520 5.432400 -0.000000 -78.477500 -9.619025 3.324730 -11.011346 -3.583574 3.991298 -5.077943 -7.901291 3.979468 1.484185 12.088000 -3.691721 -8.778157 -3.872872 -0.301142 -0.368846 0.000000 0.000000 0.000000 -1.752678 26.030044 1.770926 -41.371985 4.728203 -37.329775 -2.997806 -24.796137 -0.013167 22.255033 2.380916 0.462883 -0.032345 0.031656 -0.000000 0.000000 0.000000 0.000000 0.000000 0.000000 0.000000 18.565547 5.856403 -1.098029 72.334195 19.789810 41.926132 0.718166 81.890734 -0.002300 -2.255891 11.949867 -0.254873 0.080210 -0.630406 -0.000000 0.000000 0.000000 0.000000 0.000000 0.000000 0.000000 
-18.304472 16.078716 -0.290103 122.606832 82.695156 142.459342 -6.515400 2.174028 9.039043 -15.310663 -21.669444 -55.776459 -1.842315 1.529396 34.258389 1.560557 6.714703 -4.054531 1.078500 -0.000000 -26.816300 12.410357 -4.914369 0.633234 2.089984 -12.953205 2.542441 -0.398684 -1.686564 27.046446 -0.625426 8.832967 31.460340 5.757000 0.000000 -74.138001 -9.809560 3.220593 -10.693570 -3.589759 3.911340 -5.020819 -7.809685 3.898933 1.424995 11.982699 -3.734412 -8.704337 -3.857538 -0.299789 -0.349587 0.000000 0.000000 0.000000 -1.911819 25.660824 1.771357 -42.213487 4.352563 -36.681679 -2.965315 -25.834864 -0.011742 22.412819 2.235228 0.438000 -0.032513 0.027980 -0.000000 0.000000 0.000000 0.000000 0.000000 0.000000 0.000000 18.444230 5.698038 -1.126894 72.326732 19.257764 41.523254 0.750226 80.725301 -0.002794 -2.235098 11.761421 -0.247897 0.075753 -0.611822 -0.000000 0.000000 0.000000 0.000000 0.000000 0.000000 0.000000 
-18.087695 16.137013 -0.288449 121.750016 82.432709 141.167753 -6.528306 2.217364 8.841874 -16.137032 -21.201009 -53.941360 -1.951433 1.503324 34.128783 1.575749 6.661513 -4.908874 0.921000 0.000000 -25.909599 12.584149 -4.695162 0.492866 1.414646 -13.560720 0.825493 -0.589636 -1.767354 30.800004 -0.885029 7.982234 32.884068 5.512400 0.000001 -69.474300 -9.960901 3.091193 -10.381671 -3.583135 3.800328 -4.960136 -7.712271 3.786453 1.377659 11.869101 -3.798862 -8.623007 -3.846872 -0.298917 -0.327699 0.000000 0.000000 0.000000 -2.091850 25.247143 1.767268 -43.141884 4.032134 -35.879749 -2.943344 -26.809541 -0.010186 22.551284 2.112215 0.417118 -0.033005 0.023975 -0.000000 0.000000 0.000000 0.000000 0.000000 0.000000 0.000000 18.347114 5.493235 -1.147676 72.281345 18.767444 41.103743 0.781316 79.468262 -0.002646 -2.126950 11.504330 -0.230336 0.070121 -0.590765 -0.000000 0.000000 0.000000 0.000000 0.000000 0.000000 0.000000 
